<?xml version="1.0" encoding="UTF-8" standalone="no"?>
<!DOCTYPE svg PUBLIC "-//W3C//DTD SVG 1.1//EN" "http://www.w3.org/Graphics/SVG/1.1/DTD/svg11.dtd">
<svg width="100%" height="100%" viewBox="0 0 426 66" version="1.1" xmlns="http://www.w3.org/2000/svg" xmlns:xlink="http://www.w3.org/1999/xlink" xml:space="preserve" xmlns:serif="http://www.serif.com/" style="fill-rule:evenodd;clip-rule:evenodd;stroke-linejoin:round;stroke-miterlimit:2;">
    <g id="layer1" transform="matrix(2.83465,0,0,2.83465,-6,-324.75)">
        <g id="path1" transform="matrix(0.352778,0,0,-0.352778,27.9915,126.273)">
            <path d="M0,0C0.064,4.953 -1.587,12.878 -10.506,12.878C-18.104,12.878 -22,7.462 -22.592,-0.264L0,-0.264L0,0ZM-10.438,-20.414C-21.27,-20.414 -26.095,-13.873 -26.095,-2.643C-26.095,7.99 -20.676,15.789 -10.506,15.789C0.128,15.789 3.43,7.462 3.43,-0.201L3.43,-2.972L-22.66,-3.039C-22.463,-12.287 -18.697,-17.504 -10.307,-17.504C-3.638,-17.504 -1.126,-13.08 -0.4,-11.294L2.838,-11.294C1.516,-16.317 -3.238,-20.414 -10.438,-20.414" style="fill:rgb(34,34,34);fill-rule:nonzero;"/>
        </g>
        <g id="path3" transform="matrix(0.352778,0,0,-0.352778,33.9822,133.171)">
            <path d="M0,0L0,2.845L13.279,2.845L13.279,49.078L2.444,49.078L2.444,52.052L16.782,52.052L16.782,2.845L30.189,2.845L30.189,0L0,0Z" style="fill:rgb(34,34,34);fill-rule:nonzero;"/>
        </g>
        <g id="path5" transform="matrix(0.352778,0,0,-0.352778,48.8937,133.171)">
            <path d="M0,0L0,2.845L13.276,2.845L13.276,49.078L2.444,49.078L2.444,52.052L16.774,52.052L16.774,2.845L30.187,2.845L30.187,0L0,0Z" style="fill:rgb(34,34,34);fill-rule:nonzero;"/>
        </g>
        <g id="path7" transform="matrix(0.352778,0,0,-0.352778,87.9951,125.201)">
            <path d="M0,0C0,2.973 -0.592,5.285 -1.85,6.938C-3.168,8.72 -5.28,9.713 -8.587,9.713C-16.514,9.713 -19.815,3.635 -19.815,-2.509L-19.815,-22.591L-23.317,-22.591L-23.317,11.894L-20.08,11.894L-20.08,5.55L-19.948,5.55C-17.9,9.646 -14.731,12.752 -8.056,12.752C0.133,12.752 3.503,7.927 3.503,-0.265L3.503,-22.591L0,-22.591L0,0Z" style="fill:rgb(34,34,34);fill-rule:nonzero;"/>
        </g>
        <g id="path9" transform="matrix(0.352778,0,0,-0.352778,104.858,125.924)">
            <path d="M0,0C0,5.418 -3.366,11.889 -11.759,11.889C-19.813,11.889 -23.779,5.55 -23.779,-2.84C-23.779,-11.159 -20.414,-17.634 -11.823,-17.634C-3.833,-17.634 0,-11.756 0,-5.876L0,0ZM-25.559,-24.375L-22.064,-24.375C-21.072,-28.404 -17.771,-30.847 -11.231,-30.847C-5.747,-30.847 0.07,-28.208 0.07,-19.287L0.07,-13.604L-0.131,-13.604C-2.445,-17.964 -6.87,-20.543 -12.68,-20.543C-19.021,-20.543 -27.411,-16.38 -27.411,-2.84C-27.411,8.787 -20.743,14.799 -11.759,14.799C-5.419,14.799 -1.388,11.165 0.135,7.73L0.262,7.73L0.262,13.941L3.5,13.941L3.5,-18.693C3.5,-29.065 -2.839,-33.688 -11.231,-33.688C-20.414,-33.688 -24.437,-29.657 -25.559,-24.375" style="fill:rgb(34,34,34);fill-rule:nonzero;"/>
        </g>
        <g id="path11" transform="matrix(0.352778,0,0,-0.352778,120.877,124.175)">
            <path d="M0,0C-0.466,3.429 -3.703,6.931 -9.778,6.931C-17.176,6.931 -22,1.515 -22,-8.19C-22,-17.838 -18.232,-23.451 -10.108,-23.451C-3.438,-23.451 -0.858,-19.951 0,-15.396L3.5,-15.396C2.244,-22.723 -3.039,-26.36 -10.243,-26.36C-20.678,-26.36 -25.695,-19.29 -25.695,-8.59C-25.695,1.847 -20.084,9.905 -9.911,9.905C-3.969,9.905 2.379,7.261 3.5,0L0,0Z" style="fill:rgb(34,34,34);fill-rule:nonzero;"/>
        </g>
        <g id="path13" transform="matrix(0.352778,0,0,-0.352778,131.667,132.354)">
            <path d="M0,0C5.879,0 11.627,4.625 11.627,13.079L11.627,15.124C1.585,14.469 -2.775,13.87 -4.955,12.353C-6.87,11.097 -7.992,9.25 -7.992,6.805C-7.992,2.31 -4.69,0 0,0M-0.531,-2.842C-7.071,-2.842 -11.56,0.657 -11.56,6.736C-11.56,10.765 -9.516,13.277 -6.935,14.795C-3.503,16.712 2.313,17.37 11.689,17.963L11.689,19.219C11.689,25.562 10.77,30.055 2.443,30.055C-3.503,30.055 -6.342,26.882 -6.87,23.119L-10.172,23.119C-9.579,28.271 -5.419,32.827 2.38,32.96C13.605,32.96 14.994,26.09 14.994,19.551L14.994,4.094C14.994,1.451 15.85,0.53 18.102,0.53L19.418,0.53L19.418,-2.314L18.031,-2.314C13.077,-2.314 11.689,-0.069 11.756,4.625L11.627,4.625C9.711,-0.069 5.15,-2.842 -0.531,-2.842" style="fill:rgb(34,34,34);fill-rule:nonzero;"/>
        </g>
        <g id="path15" transform="matrix(0.352778,0,0,-0.352778,145.548,122.009)">
            <path d="M0,0L-9.964,0L-9.964,2.844L-4.097,2.844C-0.464,2.844 0.13,3.703 0.13,7.401L0.13,13.411L3.495,13.411L3.495,2.844L18.626,2.844L18.626,0L3.495,0L3.495,-22.987C3.495,-27.545 6.14,-29.395 10.7,-29.395C13.209,-29.395 16.181,-29.061 18.626,-28.272L18.626,-31.241C16.774,-31.837 14.067,-32.433 10.636,-32.433C2.572,-32.433 0,-28.731 0,-22.722L0,0Z" style="fill:rgb(34,34,34);fill-rule:nonzero;"/>
        </g>
        <g id="path17" transform="matrix(0.352778,0,0,-0.352778,69.0355,132.448)">
            <path d="M0,0C7.132,0 12.02,4.885 11.819,13.145L15.057,13.145C15.322,2.837 8.654,-2.909 -0.265,-2.909C-10.307,-2.909 -14.732,2.903 -14.732,9.313C-14.732,15.854 -11.823,18.891 -7.663,22.787L-5.547,24.77C-1.851,28.204 -1.387,28.797 -1.387,34.214L-1.387,35.997L1.781,35.997L1.781,34.279C1.781,27.542 1.121,26.488 -3.567,22.393L-6.341,19.95C-9.71,17.039 -11.231,13.938 -11.231,9.707C-11.231,3.5 -7.135,0 0,0" style="fill:rgb(34,34,34);fill-rule:nonzero;"/>
        </g>
        <g id="path19" transform="matrix(0.352778,0,0,-0.352778,70.5486,116.019)">
            <path d="M0,0C0,-2.277 -1.844,-4.126 -4.122,-4.126C-6.397,-4.126 -8.246,-2.277 -8.246,0C-8.246,2.274 -6.397,4.122 -4.122,4.122C-1.844,4.122 0,2.274 0,0" style="fill:rgb(34,34,34);fill-rule:nonzero;"/>
        </g>
        <g id="path21" transform="matrix(0.352778,0,0,-0.352778,11.6011,127.088)">
            <path d="M0,0C0,8.124 -2.973,15.19 -11.56,15.19C-19.687,15.19 -23.384,9.245 -23.384,3.5L-23.384,-3.305C-23.384,-8.719 -19.95,-15.192 -11.825,-15.192C-3.964,-15.192 0,-9.182 0,0M-26.885,34.81L-23.384,34.81L-23.384,11.163L-23.319,11.163C-21.007,15.656 -16.647,18.101 -10.966,18.101C-3.633,18.101 3.698,13.412 3.698,0C3.698,-12.483 -3.567,-18.102 -11.89,-18.102C-18.033,-18.102 -21.93,-14.532 -23.517,-11.031L-23.649,-11.031L-23.649,-17.242L-26.885,-17.242L-26.885,34.81Z" style="fill:rgb(34,34,34);fill-rule:nonzero;"/>
        </g>
    </g>
</svg>
